{"accessors" : [{"bufferView" : 0, "byteOffset" : 0, "componentType" : 5123, "count" : 6, "type" : "SCALAR", "max" : [3], "min" : [0]}, {"bufferView" : 1, "byteOffset" : 0, "componentType" : 5126, "count" : 4, "type" : "VEC3", "max" : [14.793299674987793, 29.070499420166016, 36.614200592041016], "min" : [1.9768600463867188, 16.431699752807617, 1.968500018119812], "name" : "POSITION"}, {"bufferView" : 1, "byteOffset" : 12, "componentType" : 5126, "count" : 4, "type" : "VEC2", "max" : [5.905509948730469, 1], "min" : [0, -1.9527599811553955], "name" : "TEXCOORD_0"}, {"bufferView" : 1, "byteOffset" : 20, "componentType" : 5126, "count" : 4, "type" : "VEC3", "max" : [0.702156126499176, -0.7120290994644165, -5.0659025563307524E-17], "min" : [0.702156126499176, -0.7120290994644165, -5.0659025563307524E-17], "name" : "NORMAL"}, {"bufferView" : 0, "byteOffset" : 12, "componentType" : 5123, "count" : 6, "type" : "SCALAR", "max" : [3], "min" : [0]}, {"bufferView" : 2, "byteOffset" : 0, "componentType" : 5126, "count" : 4, "type" : "VEC3", "max" : [55.9828987121582, 28.871200561523438, 36.614200592041016], "min" : [43.344200134277344, 16.05470085144043, 1.968500018119812], "name" : "POSITION"}, {"bufferView" : 2, "byteOffset" : 12, "componentType" : 5126, "count" : 4, "type" : "VEC2", "max" : [5.905509948730469, 1], "min" : [0, -1.9527599811553955], "name" : "TEXCOORD_0"}, {"bufferView" : 2, "byteOffset" : 20, "componentType" : 5126, "count" : 4, "type" : "VEC3", "max" : [-0.7120290994644165, -0.702156126499176, 6.472888140063434E-17], "min" : [-0.7120290994644165, -0.702156126499176, 6.472888140063434E-17], "name" : "NORMAL"}, {"bufferView" : 0, "byteOffset" : 24, "componentType" : 5123, "count" : 1812, "type" : "SCALAR", "max" : [911], "min" : [0]}, {"bufferView" : 3, "byteOffset" : 0, "componentType" : 5126, "count" : 912, "type" : "VEC3", "max" : [55.974700927734375, 15.34589958190918, 36.614200592041016], "min" : [1.969190001487732, 4.262139797210693, 1.968500018119812], "name" : "POSITION"}, {"bufferView" : 3, "byteOffset" : 12, "componentType" : 5126, "count" : 912, "type" : "VEC2", "max" : [38.18880081176758, 1], "min" : [-38.18880081176758, -37.18840026855469], "name" : "TEXCOORD_0"}, {"bufferView" : 3, "byteOffset" : 20, "componentType" : 5126, "count" : 912, "type" : "VEC3", "max" : [0.7120290994644165, 1.0000001192092896, 1.0000044107437134], "min" : [-0.7050448656082153, -1.0000001192092896, -1.0000044107437134], "name" : "NORMAL"}, {"bufferView" : 0, "byteOffset" : 3648, "componentType" : 5123, "count" : 1800, "type" : "SCALAR", "max" : [903], "min" : [0]}, {"bufferView" : 4, "byteOffset" : 0, "componentType" : 5126, "count" : 904, "type" : "VEC3", "max" : [56.20370101928711, 15.547200202941895, 1.968500018119812], "min" : [1.7368600368499756, 3.9361300468444824, -4.890220207129457E-15], "name" : "POSITION"}, {"bufferView" : 4, "byteOffset" : 12, "componentType" : 5126, "count" : 904, "type" : "VEC2", "max" : [38.515098571777344, 1], "min" : [-38.515098571777344, -37.514400482177734], "name" : "TEXCOORD_0"}, {"bufferView" : 4, "byteOffset" : 20, "componentType" : 5126, "count" : 904, "type" : "VEC3", "max" : [0.7120290994644165, 1.0000001192092896, 1.0000044107437134], "min" : [-0.702156126499176, -1.0000001192092896, -1.0000044107437134], "name" : "NORMAL"}, {"bufferView" : 0, "byteOffset" : 7248, "componentType" : 5123, "count" : 1800, "type" : "SCALAR", "max" : [903], "min" : [0]}, {"bufferView" : 5, "byteOffset" : 0, "componentType" : 5126, "count" : 904, "type" : "VEC3", "max" : [56.20370101928711, 15.547200202941895, 38.582698822021484], "min" : [1.7368600368499756, 3.9361300468444824, 36.614200592041016], "name" : "POSITION"}, {"bufferView" : 5, "byteOffset" : 12, "componentType" : 5126, "count" : 904, "type" : "VEC2", "max" : [38.515098571777344, 1], "min" : [-38.515098571777344, -37.514400482177734], "name" : "TEXCOORD_0"}, {"bufferView" : 5, "byteOffset" : 20, "componentType" : 5126, "count" : 904, "type" : "VEC3", "max" : [0.7120290994644165, 1.0000001192092896, 1.0000044107437134], "min" : [-0.702156126499176, -1.0000001192092896, -1.0000044107437134], "name" : "NORMAL"}, {"bufferView" : 0, "byteOffset" : 10848, "componentType" : 5123, "count" : 624, "type" : "SCALAR", "max" : [243], "min" : [0]}, {"bufferView" : 6, "byteOffset" : 0, "componentType" : 5126, "count" : 244, "type" : "VEC3", "max" : [55.750701904296875, 28.813400268554688, 38.582698822021484], "min" : [2.201319932937622, 4.5881500244140625, 37.874000549316406], "name" : "POSITION"}, {"bufferView" : 6, "byteOffset" : 12, "componentType" : 5126, "count" : 244, "type" : "VEC2", "max" : [38.324100494384766, 1], "min" : [-38.324100494384766, -37.324100494384766], "name" : "TEXCOORD_0"}, {"bufferView" : 6, "byteOffset" : 20, "componentType" : 5126, "count" : 244, "type" : "VEC3", "max" : [0.7272631525993347, 0.999977171421051, 1.0000044107437134], "min" : [-0.9999800324440002, -0.7237792015075684, -1.0000044107437134], "name" : "NORMAL"}, {"bufferView" : 0, "byteOffset" : 12096, "componentType" : 5123, "count" : 438, "type" : "SCALAR", "max" : [291], "min" : [0]}, {"bufferView" : 7, "byteOffset" : 0, "componentType" : 5126, "count" : 292, "type" : "VEC3", "max" : [55.71390151977539, 15.547200202941895, 38.582698822021484], "min" : [2.201319932937622, 4.5881500244140625, 37.874000549316406], "name" : "POSITION"}, {"bufferView" : 7, "byteOffset" : 12, "componentType" : 5126, "count" : 292, "type" : "VEC2", "max" : [38.324100494384766, 1], "min" : [-38.324100494384766, -37.324100494384766], "name" : "TEXCOORD_0"}, {"bufferView" : 7, "byteOffset" : 20, "componentType" : 5126, "count" : 292, "type" : "VEC3", "max" : [0.7272631525993347, 0.999977171421051, 1.0000044107437134], "min" : [-0.9999800324440002, -0.8726456761360168, -1.0000044107437134], "name" : "NORMAL"}, {"bufferView" : 0, "byteOffset" : 12972, "componentType" : 5123, "count" : 1056, "type" : "SCALAR", "max" : [531], "min" : [0]}, {"bufferView" : 8, "byteOffset" : 0, "componentType" : 5126, "count" : 532, "type" : "VEC3", "max" : [55.850101470947266, 29.36949920654297, 29.7007999420166], "min" : [2.300729990005493, 5.14424991607666, 28.99209976196289], "name" : "POSITION"}, {"bufferView" : 8, "byteOffset" : 12, "componentType" : 5126, "count" : 532, "type" : "VEC2", "max" : [39.02479934692383, 1], "min" : [-38.324100494384766, -37.324100494384766], "name" : "TEXCOORD_0"}, {"bufferView" : 8, "byteOffset" : 20, "componentType" : 5126, "count" : 532, "type" : "VEC3", "max" : [0.7272631525993347, 0.999977171421051, 1.0000044107437134], "min" : [-0.9999800324440002, -0.999975860118866, -1.0000044107437134], "name" : "NORMAL"}, {"bufferView" : 0, "byteOffset" : 15084, "componentType" : 5123, "count" : 6, "type" : "SCALAR", "max" : [3], "min" : [0]}, {"bufferView" : 9, "byteOffset" : 0, "componentType" : 5126, "count" : 4, "type" : "VEC3", "max" : [55.850101470947266, 16.381799697875977, 29.7007999420166], "min" : [55.84550094604492, 15.729499816894531, 28.99209976196289], "name" : "POSITION"}, {"bufferView" : 9, "byteOffset" : 12, "componentType" : 5126, "count" : 4, "type" : "VEC2", "max" : [-19.913999557495117, -36.81840133666992], "min" : [-38.324100494384766, -37.324100494384766], "name" : "TEXCOORD_0"}, {"bufferView" : 9, "byteOffset" : 20, "componentType" : 5126, "count" : 4, "type" : "VEC3", "max" : [-8.588477995539667E-17, -4.22320866769766E-17, -1.0000044107437134], "min" : [-8.588477995539667E-17, -4.22320866769766E-17, -1.0000044107437134], "name" : "NORMAL"}, {"bufferView" : 0, "byteOffset" : 15096, "componentType" : 5123, "count" : 84, "type" : "SCALAR", "max" : [47], "min" : [0]}, {"bufferView" : 10, "byteOffset" : 0, "componentType" : 5126, "count" : 48, "type" : "VEC3", "max" : [57.32550048828125, 16.283700942993164, 38.582698822021484], "min" : [55.74610137939453, 14.704400062561035, -5.075459959946868E-15], "name" : "POSITION"}, {"bufferView" : 10, "byteOffset" : 12, "componentType" : 5126, "count" : 48, "type" : "VEC2", "max" : [1.5748000144958496, 1], "min" : [-1.5748000144958496, -96.47239685058594], "name" : "TEXCOORD_0"}, {"bufferView" : 10, "byteOffset" : 20, "componentType" : 5126, "count" : 48, "type" : "VEC3", "max" : [0.9999800324440002, 0.9999800324440002, 1.0000044107437134], "min" : [-0.9999800324440002, -0.9999800324440002, -1.0000044107437134], "name" : "NORMAL"}, {"bufferView" : 0, "byteOffset" : 15264, "componentType" : 5123, "count" : 84, "type" : "SCALAR", "max" : [47], "min" : [0]}, {"bufferView" : 11, "byteOffset" : 0, "componentType" : 5126, "count" : 48, "type" : "VEC3", "max" : [2.2058699131011963, 16.668500900268555, 38.582698822021484], "min" : [0.626554012298584, 15.089200019836426, -4.1154199532159573E-16], "name" : "POSITION"}, {"bufferView" : 11, "byteOffset" : 12, "componentType" : 5126, "count" : 48, "type" : "VEC2", "max" : [1.5748000144958496, 1], "min" : [-1.5748000144958496, -96.47239685058594], "name" : "TEXCOORD_0"}, {"bufferView" : 11, "byteOffset" : 20, "componentType" : 5126, "count" : 48, "type" : "VEC3", "max" : [0.9999800324440002, 0.9999800324440002, 1.0000044107437134], "min" : [-0.9999800324440002, -0.9999800324440002, -1.0000044107437134], "name" : "NORMAL"}, {"bufferView" : 0, "byteOffset" : 15432, "componentType" : 5123, "count" : 84, "type" : "SCALAR", "max" : [47], "min" : [0]}, {"bufferView" : 12, "byteOffset" : 0, "componentType" : 5126, "count" : 48, "type" : "VEC3", "max" : [43.154701232910156, 29.70949935913086, 38.582698822021484], "min" : [41.57529830932617, 28.130199432373047, -3.96093993718029E-15], "name" : "POSITION"}, {"bufferView" : 12, "byteOffset" : 12, "componentType" : 5126, "count" : 48, "type" : "VEC2", "max" : [1.5748000144958496, 1], "min" : [-1.5748000144958496, -96.47239685058594], "name" : "TEXCOORD_0"}, {"bufferView" : 12, "byteOffset" : 20, "componentType" : 5126, "count" : 48, "type" : "VEC3", "max" : [0.9999800324440002, 0.9999800324440002, 1.0000044107437134], "min" : [-0.9999800324440002, -0.9999800324440002, -1.0000044107437134], "name" : "NORMAL"}, {"bufferView" : 0, "byteOffset" : 15600, "componentType" : 5123, "count" : 84, "type" : "SCALAR", "max" : [47], "min" : [0]}, {"bufferView" : 13, "byteOffset" : 0, "componentType" : 5126, "count" : 48, "type" : "VEC3", "max" : [16.107200622558594, 30.377099990844727, 38.582698822021484], "min" : [14.527899742126465, 28.797800064086914, -1.7585499833874785E-15], "name" : "POSITION"}, {"bufferView" : 13, "byteOffset" : 12, "componentType" : 5126, "count" : 48, "type" : "VEC2", "max" : [1.5748000144958496, 1], "min" : [-1.5748000144958496, -96.47239685058594], "name" : "TEXCOORD_0"}, {"bufferView" : 13, "byteOffset" : 20, "componentType" : 5126, "count" : 48, "type" : "VEC3", "max" : [0.9999800324440002, 0.9999800324440002, 1.0000044107437134], "min" : [-0.9999800324440002, -0.9999800324440002, -1.0000044107437134], "name" : "NORMAL"}, {"bufferView" : 0, "byteOffset" : 15768, "componentType" : 5123, "count" : 36, "type" : "SCALAR", "max" : [23], "min" : [0]}, {"bufferView" : 14, "byteOffset" : 0, "componentType" : 5126, "count" : 24, "type" : "VEC3", "max" : [14.985899925231934, 29.266799926757812, 38.582698822021484], "min" : [1.747849941253662, 16.199499130249023, 37.29130172729492], "name" : "POSITION"}, {"bufferView" : 14, "byteOffset" : 12, "componentType" : 5126, "count" : 24, "type" : "VEC2", "max" : [30.893999099731445, -15.199499130249023], "min" : [-30.893999099731445, -37.582698822021484], "name" : "TEXCOORD_0"}, {"bufferView" : 14, "byteOffset" : 20, "componentType" : 5126, "count" : 24, "type" : "VEC3", "max" : [0.7120290994644165, 0.7120290994644165, 1.0000044107437134], "min" : [-0.7120290994644165, -0.7120290994644165, -1.0000044107437134], "name" : "NORMAL"}], "asset" : {"generator" : "Aspose.3D 25.11.0", "version" : "2.0"}, "buffers" : [{"uri" : "data:application/octet-stream;base64,", "byteLength" : 144412}], "bufferViews" : [{"buffer" : 0, "byteOffset" : 0, "byteLength" : 15840, "target" : 34963}, {"buffer" : 0, "byteOffset" : 15844, "byteLength" : 128, "byteStride" : 32, "target" : 34962}, {"buffer" : 0, "byteOffset" : 15976, "byteLength" : 128, "byteStride" : 32, "target" : 34962}, {"buffer" : 0, "byteOffset" : 16108, "byteLength" : 29184, "byteStride" : 32, "target" : 34962}, {"buffer" : 0, "byteOffset" : 45296, "byteLength" : 28928, "byteStride" : 32, "target" : 34962}, {"buffer" : 0, "byteOffset" : 74228, "byteLength" : 28928, "byteStride" : 32, "target" : 34962}, {"buffer" : 0, "byteOffset" : 103160, "byteLength" : 7808, "byteStride" : 32, "target" : 34962}, {"buffer" : 0, "byteOffset" : 110972, "byteLength" : 9344, "byteStride" : 32, "target" : 34962}, {"buffer" : 0, "byteOffset" : 120320, "byteLength" : 17024, "byteStride" : 32, "target" : 34962}, {"buffer" : 0, "byteOffset" : 137348, "byteLength" : 128, "byteStride" : 32, "target" : 34962}, {"buffer" : 0, "byteOffset" : 137480, "byteLength" : 1536, "byteStride" : 32, "target" : 34962}, {"buffer" : 0, "byteOffset" : 139020, "byteLength" : 1536, "byteStride" : 32, "target" : 34962}, {"buffer" : 0, "byteOffset" : 140560, "byteLength" : 1536, "byteStride" : 32, "target" : 34962}, {"buffer" : 0, "byteOffset" : 142100, "byteLength" : 1536, "byteStride" : 32, "target" : 34962}, {"buffer" : 0, "byteOffset" : 143640, "byteLength" : 768, "byteStride" : 32, "target" : 34962}], "meshes" : [{"primitives" : [{"attributes" : {"POSITION" : 1, "TEXCOORD_0" : 2, "NORMAL" : 3}, "indices" : 0, "mode" : 4}], "name" : ""}, {"primitives" : [{"attributes" : {"POSITION" : 5, "TEXCOORD_0" : 6, "NORMAL" : 7}, "indices" : 4, "mode" : 4}], "name" : ""}, {"primitives" : [{"attributes" : {"POSITION" : 9, "TEXCOORD_0" : 10, "NORMAL" : 11}, "indices" : 8, "mode" : 4}], "name" : ""}, {"primitives" : [{"attributes" : {"POSITION" : 13, "TEXCOORD_0" : 14, "NORMAL" : 15}, "indices" : 12, "mode" : 4}], "name" : ""}, {"primitives" : [{"attributes" : {"POSITION" : 17, "TEXCOORD_0" : 18, "NORMAL" : 19}, "indices" : 16, "mode" : 4}], "name" : ""}, {"primitives" : [{"attributes" : {"POSITION" : 21, "TEXCOORD_0" : 22, "NORMAL" : 23}, "indices" : 20, "mode" : 4}, {"attributes" : {"POSITION" : 25, "TEXCOORD_0" : 26, "NORMAL" : 27}, "indices" : 24, "mode" : 4}], "name" : ""}, {"primitives" : [{"attributes" : {"POSITION" : 29, "TEXCOORD_0" : 30, "NORMAL" : 31}, "indices" : 28, "mode" : 4}, {"attributes" : {"POSITION" : 33, "TEXCOORD_0" : 34, "NORMAL" : 35}, "indices" : 32, "mode" : 4}], "name" : ""}, {"primitives" : [{"attributes" : {"POSITION" : 37, "TEXCOORD_0" : 38, "NORMAL" : 39}, "indices" : 36, "mode" : 4}], "name" : ""}, {"primitives" : [{"attributes" : {"POSITION" : 41, "TEXCOORD_0" : 42, "NORMAL" : 43}, "indices" : 40, "mode" : 4}], "name" : ""}, {"primitives" : [{"attributes" : {"POSITION" : 45, "TEXCOORD_0" : 46, "NORMAL" : 47}, "indices" : 44, "mode" : 4}], "name" : ""}, {"primitives" : [{"attributes" : {"POSITION" : 49, "TEXCOORD_0" : 50, "NORMAL" : 51}, "indices" : 48, "mode" : 4}], "name" : ""}, {"primitives" : [{"attributes" : {"POSITION" : 53, "TEXCOORD_0" : 54, "NORMAL" : 55}, "indices" : 52, "mode" : 4}], "name" : ""}], "nodes" : [{"mesh" : 0, "name" : "Mesh1 ____8_1 _____________1000_1000 Model"}, {"mesh" : 1, "name" : "Mesh2 ____8_2 _____________1000_1000 Model"}, {"mesh" : 2, "name" : "Mesh3 _________1000 _____________1000_1000 Model"}, {"mesh" : 3, "name" : "Mesh4 _____1000 _____________1000_1000 Model"}, {"mesh" : 4, "name" : "Mesh5 _____1000_1 _____________1000_1000 Model"}, {"mesh" : 5, "name" : "Mesh6 _________1000_1000 _____________1000_1000 Model"}, {"mesh" : 6, "name" : "Mesh7 _________1000_1000_1 _____________1000_1000 Model"}, {"mesh" : 7, "name" : "Mesh8 _______4_1 _____________1000_1000 Model"}, {"mesh" : 8, "name" : "Mesh9 _______4_2 _____________1000_1000 Model"}, {"mesh" : 9, "name" : "Mesh10 _______4_3 _____________1000_1000 Model"}, {"mesh" : 10, "name" : "Mesh11 _______4_4 _____________1000_1000 Model"}, {"mesh" : 11, "name" : "Mesh12 Model"}], "scene" : 0, "scenes" : [{"nodes" : [0, 1, 2, 3, 4, 5, 6, 7, 8, 9, 10, 11]}]}