# Alias OBJ Model File
# Exported from SketchUp, (c) 2000-2012 Trimble Navigation Limited
# File units = centimeters

mtllib modul_100_no panel.mtl

g Mesh1 ______1 Model

usemtl Color_003
v 97.1716 0 -4
vt -1.5748 1.11355
vn -0 -1 -0
v 98.8284 0 -4
vt -1.5748 0.461249
v 100 0 -2.82843
vt -1.11355 6.66134e-16
v 100 0 -1.17157
vt -0.461249 0
v 98.8284 0 -5.5627e-14
vt 0 0.461249
v 97.1716 0 -5.45348e-14
vt 0 1.11355
v 96 0 -1.17157
vt -0.461249 1.5748
v 96 0 -2.82843
vt -1.11355 1.5748
f 1/1/1 2/2/1 3/3/1 4/4/1 5/5/1 6/6/1 7/7/1 8/8/1 

usemtl Metal_Aluminum_Anodized
vt 0.00854165 0
vn -6.59195e-16 0 -1
vt 0.0206214 0
v 97.1716 248 -4
vt 0.0206214 1.80811
v 98.8284 248 -4
vt 0.00854165 1.80811
f 2/9/2 1/10/2 9/11/2 10/12/2 

vt -0.00603986 0
vn -0.707107 0 -0.707107
vt 0.00603986 0
v 96 248 -2.82843
vt 0.00603986 1.80811
vt -0.00603986 1.80811
f 1/13/3 8/14/3 11/15/3 9/16/3 

vt -0.0206214 0
vn -1 0 1.34e-15
vt -0.00854165 0
v 96 248 -1.17157
vt -0.00854165 1.80811
vt -0.0206214 1.80811
f 8/17/4 7/18/4 12/19/4 11/20/4 

vt -0.0266612 0
vn -0.707107 0 0.707107
vt -0.0145815 0
v 97.1716 248 -5.45348e-14
vt -0.0145815 1.80811
vt -0.0266612 1.80811
f 7/21/5 6/22/5 13/23/5 12/24/5 

vn 1.4251e-15 0 1
v 98.8284 248 -5.5627e-14
f 6/17/6 5/18/6 14/19/6 13/20/6 

vn 0.707107 0 0.707107
v 100 248 -1.17157
f 5/13/7 4/14/7 15/15/7 14/16/7 

vn 1 0 -1.67242e-15
v 100 248 -2.82843
f 4/9/8 3/10/8 16/11/8 15/12/8 

vt 0.0145815 0
vn 0.707107 0 -0.707107
vt 0.0266612 0
vt 0.0266612 1.80811
vt 0.0145815 1.80811
f 3/25/9 2/26/9 10/27/9 16/28/9 

vt 0.029163 0.00854165
vn 0 1 -0
vt 0.029163 0.0206214
vt 0.0206214 0.029163
vt 0.00854165 0.029163
vt 0 0.0206214
vt 0 0.00854165
vt 0.0206214 1.23358e-17
f 10/29/10 9/30/10 11/31/10 12/32/10 13/33/10 14/34/10 15/9/10 16/35/10 

g Mesh2 ______1_1 Model

usemtl Color_003
v 1 0 -2.82843
vt -37.4016 0
vn 0 -1 0
v 96 0 -2.82843
vt 0 0
v 96 0 -1.17157
vt 0 0.652305
v 1 0 -1.17157
vt -37.4016 0.652305
f 17/36/11 18/37/11 19/38/11 20/39/11 

usemtl Metal_Aluminum_Anodized
vn -5.82867e-16 0 -1
vt 0.692622 0
v 1 5 -2.82843
vt 0.692622 0.0364538
v 96 5 -2.82843
vt 0 0.0364538
f 18/37/12 17/40/12 21/41/12 22/42/12 

usemtl Color_003
vn -1 0 5.82867e-16
vt 0.652305 0
v 1 5 -1.17157
vt 0.652305 1.9685
vt 0 1.9685
f 17/37/13 20/43/13 23/44/13 21/45/13 

usemtl Metal_Aluminum_Anodized
vt -0.692622 0
vn 5.82867e-16 0 1
vt -1.19115e-33 0
v 96 5 -1.17157
vt -1.19115e-33 0.0364538
vt -0.692622 0.0364538
f 20/46/14 19/47/14 24/48/14 23/49/14 

usemtl Color_003
vt -0.652305 0
vn 1 0 -5.82867e-16
vt -0.652305 1.9685
f 19/50/15 18/37/15 22/45/15 24/51/15 

usemtl Metal_Aluminum_Anodized
vt 0.692622 0.0120797
vt 0 0.0120797
f 22/37/10 21/40/10 23/52/10 24/53/10 

g Mesh3 ______2 Model

usemtl Color_003
v 1.77636e-15 0 -1.17157
v 8.88178e-16 0 -2.82843
v 1.17157 0 -4
v 2.82843 0 -4
v 4 0 -2.82843
v 4 0 -1.17157
v 2.82843 0 -1.77636e-15
v 1.17157 0 -0
f 25/1/11 26/2/11 27/3/11 28/4/11 29/5/11 30/6/11 31/7/11 32/8/11 

usemtl Metal_Aluminum_Anodized
v 1.77636e-15 248 -1.17157
v 8.88178e-16 248 -2.82843
f 26/9/13 25/10/13 33/11/13 34/12/13 

v 1.17157 248 -0
f 25/13/5 32/14/5 35/15/5 33/16/5 

vn 1.26367e-15 0 1
v 2.82843 248 -1.77636e-15
f 32/17/16 31/18/16 36/19/16 35/20/16 

v 4 248 -1.17157
f 31/21/7 30/22/7 37/23/7 36/24/7 

vn 1 0 -1.34877e-15
v 4 248 -2.82843
f 30/17/17 29/18/17 38/19/17 37/20/17 

v 2.82843 248 -4
f 29/13/9 28/14/9 39/15/9 38/16/9 

vn -1.59609e-15 0 -1
v 1.17157 248 -4
f 28/9/18 27/10/18 40/11/18 39/12/18 

f 27/25/3 26/26/3 34/27/3 40/28/3 

f 34/29/10 33/30/10 35/31/10 36/32/10 37/33/10 38/34/10 39/9/10 40/35/10 

g Mesh4 ______3 Model

usemtl Color_003
v 8.88178e-16 0 -2.82843
v 1.17157 0 -4
v 2.82843 0 -4
v 4 0 -2.82843
v 4 0 -1.17157
v 2.82843 0 -2.66454e-15
v 1.17157 0 -8.88178e-16
f 25/1/11 41/2/11 42/3/11 43/4/11 44/5/11 45/6/11 46/7/11 47/8/11 

usemtl Metal_Aluminum_Anodized
v 8.88178e-16 248 -2.82843
f 41/9/13 25/10/13 33/11/13 48/12/13 

v 1.17157 248 -8.88178e-16
f 25/13/5 47/14/5 49/15/5 33/16/5 

v 2.82843 248 -2.66454e-15
f 47/17/16 46/18/16 50/19/16 49/20/16 

v 4 248 -1.17157
f 46/21/7 45/22/7 51/23/7 50/24/7 

v 4 248 -2.82843
f 45/17/17 44/18/17 52/19/17 51/20/17 

v 2.82843 248 -4
f 44/13/9 43/14/9 53/15/9 52/16/9 

v 1.17157 248 -4
f 43/9/18 42/10/18 54/11/18 53/12/18 

f 42/25/3 41/26/3 48/27/3 54/28/3 

f 48/29/10 33/30/10 49/31/10 50/32/10 51/33/10 52/34/10 53/9/10 54/35/10 

g Mesh5 ______2_1 Model

usemtl Color_003
v 4 243 -2.82843
v 96 243 -2.82843
v 96 243 -1.17157
v 4 243 -1.17157
f 55/36/11 56/37/11 57/38/11 58/39/11 

usemtl Metal_Aluminum_Anodized
v 4 248 -2.82843
v 96 248 -2.82843
f 56/37/12 55/40/12 59/41/12 60/42/12 

usemtl Color_003
v 4 248 -1.17157
f 55/37/13 58/43/13 61/44/13 59/45/13 

usemtl Metal_Aluminum_Anodized
v 96 248 -1.17157
f 58/46/14 57/47/14 62/48/14 61/49/14 

usemtl Color_003
f 57/50/15 56/37/15 60/45/15 62/51/15 

usemtl Metal_Aluminum_Anodized
f 60/37/10 59/40/10 61/52/10 62/53/10 

g Mesh6 ______4 Model

usemtl Color_003
v 96 0 -1.17157
v 96 0 -2.82843
v 97.1716 0 -4
v 98.8284 0 -4
v 100 0 -2.82843
v 100 0 -1.17157
v 98.8284 0 -5.86198e-14
v 97.1716 0 -5.68434e-14
f 63/1/11 64/2/11 65/3/11 66/4/11 67/5/11 68/6/11 69/7/11 70/8/11 

usemtl Metal_Aluminum_Anodized
v 96 248 -1.17157
v 96 248 -2.82843
f 64/9/13 63/10/13 71/11/13 72/12/13 

v 97.1716 248 -5.68434e-14
f 63/13/5 70/14/5 73/15/5 71/16/5 

v 98.8284 248 -5.86198e-14
f 70/17/16 69/18/16 74/19/16 73/20/16 

v 100 248 -1.17157
f 69/21/7 68/22/7 75/23/7 74/24/7 

v 100 248 -2.82843
f 68/17/17 67/18/17 76/19/17 75/20/17 

v 98.8284 248 -4
f 67/13/9 66/14/9 77/15/9 76/16/9 

v 97.1716 248 -4
f 66/9/18 65/10/18 78/11/18 77/12/18 

f 65/25/3 64/26/3 72/27/3 78/28/3 

f 72/29/10 71/30/10 73/31/10 74/32/10 75/33/10 76/34/10 77/9/10 78/35/10 

g Mesh7 Model

usemtl Color_M00
v 1 243 -2.1
vt -0.826772 95.6693
vn -1 0 -0
v 1 5 -2.1
vt -0.826772 1.9685
v 1 5 -1.9
vt -0.748031 1.9685
v 1 243 -1.9
vt -0.748031 95.6693
f 79/54/19 80/55/19 81/56/19 82/57/19 

v 96 243 -2.1
vt -37.7953 95.6693
vn -5.6993e-16 0 -1
v 96 5 -2.1
vt -37.7953 1.9685
vt -0.393701 1.9685
vt -0.393701 95.6693
f 83/58/20 84/59/20 80/60/20 79/61/20 

vt 0.826772 1.9685
vn 1 0 -0
vt 0.826772 95.6693
v 96 243 -1.9
vt 0.748031 95.6693
v 96 5 -1.9
vt 0.748031 1.9685
f 84/62/21 83/63/21 85/64/21 86/65/21 

vt 0.393701 0.748031
vt 37.7953 0.748031
vt 37.7953 0.826772
vt 0.393701 0.826772
f 82/66/10 85/67/10 83/68/10 79/69/10 

vt -37.7953 0.748031
vn 0 -1 -0
vt -0.393701 0.748031
vt -0.393701 0.826772
vt -37.7953 0.826772
f 86/70/22 81/71/22 80/72/22 84/73/22 

g Mesh8 Model

v 1.08287e-13 5 -2.1
v 1.08287e-13 243 -2.1
v 1.08287e-13 243 -1.9
v 1.08287e-13 5 -1.9
f 87/62/21 88/63/21 89/64/21 90/65/21 

g Mesh9 Model

v 98.1 243 -3
vt -38.622 95.6693
vn 2.16573e-12 0 -1
v 98.1 5 -3
vt -38.622 1.9685
v 97.9 5 -3
vt -38.5433 1.9685
v 97.9 243 -3
vt -38.5433 95.6693
f 91/74/23 92/75/23 93/76/23 94/77/23 

vt -38.622 1.1811
v 98.1 5 -2.1
vt -38.622 0.826772
v 97.9 5 -2.1
vt -38.5433 0.826772
vt -38.5433 1.1811
f 92/78/22 95/79/22 96/80/22 93/81/22 

vt 38.5433 1.1811
v 97.9 243 -2.1
vt 38.5433 0.826772
v 98.1 243 -2.1
vt 38.622 0.826772
vt 38.622 1.1811
f 94/82/10 97/83/10 98/84/10 91/85/10 

